HIERARCHY
ROOT SpineBase
{
  OFFSET 0.000000 0.000000 0.000000
  CHANNELS 6 Xposition Yposition Zposition Zrotation Xrotation Yrotation
  JOINT SpineMid
  {
    OFFSET 0.000000 28.941562 0.000000
    CHANNELS 3 Zrotation Xrotation Yrotation
    JOINT SpineShoulder
    {
      OFFSET -0.143669 21.600367 -0.640263
      CHANNELS 3 Zrotation Xrotation Yrotation
      JOINT Neck
      {
        OFFSET -0.074259 7.164217 -0.521599
        CHANNELS 3 Zrotation Xrotation Yrotation
        JOINT Head
        {
          OFFSET -2.136242 11.885701 0.692622
          CHANNELS 3 Zrotation Xrotation Yrotation
          End Site
          {
            OFFSET 0 0 0
          }
        }
      }
      JOINT ShoulderLeft
      {
        OFFSET -15.941073 -1.434972 7.039971
        CHANNELS 3 Zrotation Xrotation Yrotation
        JOINT ElbowLeft
        {
          OFFSET -3.553244 -28.670365 2.058361
          CHANNELS 3 Zrotation Xrotation Yrotation
          JOINT WristLeft
          {
            OFFSET -4.434391 -20.544953 -4.551596
            CHANNELS 3 Zrotation Xrotation Yrotation
            JOINT HandLeft
            {
              OFFSET 1.339854 -5.654638 -2.623189
              CHANNELS 3 Zrotation Xrotation Yrotation
              JOINT HandTipLeft
              {
                OFFSET -0.569272 -5.032088 -1.354385
                CHANNELS 3 Zrotation Xrotation Yrotation
                End Site
                {
                  OFFSET 0 0 0
                }
              }
              JOINT ThumbLeft
              {
                OFFSET -2.867390 1.278458 -1.561004
                CHANNELS 3 Zrotation Xrotation Yrotation
                End Site
                {
                  OFFSET 0 0 0
                }
              }
            }
          }
        }
      }
      JOINT ShoulderRight
      {
        OFFSET 14.031751 -1.772501 -6.472573
        CHANNELS 3 Zrotation Xrotation Yrotation
        JOINT ElbowRight
        {
          OFFSET 6.294271 -26.379296 -4.474218
          CHANNELS 3 Zrotation Xrotation Yrotation
          JOINT WristRight
          {
            OFFSET -1.143586 -20.786026 -5.611910
            CHANNELS 3 Zrotation Xrotation Yrotation
            JOINT HandRight
            {
              OFFSET -2.697669 -6.027789 -2.006118
              CHANNELS 3 Zrotation Xrotation Yrotation
              JOINT HandTipRight
              {
                OFFSET -1.555562 -5.425507 -2.464173
                CHANNELS 3 Zrotation Xrotation Yrotation
                End Site
                {
                  OFFSET 0 0 0
                }
              }
              JOINT ThumbRight
              {
                OFFSET 1.225329 -1.375845 -3.590579
                CHANNELS 3 Zrotation Xrotation Yrotation
                End Site
                {
                  OFFSET 0 0 0
                }
              }
            }
          }
        }
      }
    }
  }
  JOINT HipLeft
  {
    OFFSET -5.850772 0.429023 -1.341537
    CHANNELS 3 Zrotation Xrotation Yrotation
    JOINT KneeLeft
    {
      OFFSET -6.033000 -32.428085 2.606704
      CHANNELS 3 Zrotation Xrotation Yrotation
      JOINT AnkleLeft
      {
        OFFSET 2.236512 -34.648546 6.403177
        CHANNELS 3 Zrotation Xrotation Yrotation
        JOINT FootLeft
        {
          OFFSET -2.398669 -6.418455 -7.130267
          CHANNELS 3 Zrotation Xrotation Yrotation
          End Site
          {
            OFFSET 0 0 0
          }
        }
      }
    }
  }
  JOINT HipRight
  {
    OFFSET 5.205095 1.327211 -5.214733
    CHANNELS 3 Zrotation Xrotation Yrotation
    JOINT KneeRight
    {
      OFFSET 4.768484 -30.241967 0.058456
      CHANNELS 3 Zrotation Xrotation Yrotation
      JOINT AnkleRight
      {
        OFFSET 0.692646 -36.695412 6.281096
        CHANNELS 3 Zrotation Xrotation Yrotation
        JOINT FootRight
        {
          OFFSET -4.960559 -3.952266 -10.224263
          CHANNELS 3 Zrotation Xrotation Yrotation
          End Site
          {
            OFFSET 0 0 0
          }
        }
      }
    }
  }
}
MOTION
Frames: 13
Frame Time: 0.033333
36.013044 75.346289 360.760315 -0.000000 0.000000 19.306862 -0.000000 0.000000 -19.306862 -0.000000 0.000000 0.000000 -0.000000 0.000000 0.000000 0.000000 0.000000 0.000000 -0.000000 0.000000 0.000000 -0.000000 0.000000 0.000000 -0.000000 0.000000 0.000000 -0.000000 0.000000 0.000000 0.000000 0.000000 0.000000 0.000000 0.000000 0.000000 -0.000000 0.000000 0.000000 -0.000000 0.000000 0.000000 -0.000000 0.000000 0.000000 -0.000000 0.000000 0.000000 0.000000 0.000000 0.000000 0.000000 0.000000 0.000000 -0.000000 0.000000 -19.306862 -0.000000 0.000000 0.000000 -0.000000 0.000000 0.000000 0.000000 0.000000 0.000000 -0.000000 0.000000 -19.306862 -0.000000 0.000000 0.000000 -0.000000 0.000000 0.000000 0.000000 0.000000 0.000000
36.093756 75.352932 360.676627 0.105837 0.164669 19.448278 -0.154626 -0.120034 -19.448592 -0.000000 0.000000 0.000000 -0.000000 0.000000 0.000000 0.000000 0.000000 0.000000 -0.000000 0.000000 0.000000 -0.000000 0.000000 0.000000 -0.000000 0.000000 0.000000 -0.342107 -1.422371 0.249499 0.000000 0.000000 0.000000 0.000000 0.000000 0.000000 -0.000000 0.000000 0.000000 -0.000000 0.000000 0.000000 1.445047 -0.765117 -0.129902 -1.409231 -2.654463 1.129786 0.000000 0.000000 0.000000 0.000000 0.000000 0.000000 -0.154626 -0.120034 -19.448592 -0.000000 0.000000 0.000000 -4.752476 13.227325 0.759038 0.000000 0.000000 0.000000 -0.801942 -0.765338 -19.584360 0.393616 0.824913 0.127932 2.363011 -2.973308 -2.557308 0.000000 0.000000 0.000000
36.139334 75.352701 360.617184 0.166313 0.274531 19.546971 -0.248582 -0.203063 -19.547810 -0.000000 0.000000 0.000000 -0.000000 0.000000 0.000000 0.000000 0.000000 0.000000 -0.000000 0.000000 0.000000 -0.000000 0.000000 0.000000 0.750411 -1.111403 -0.605976 -1.292462 -1.460627 1.060983 0.000000 0.000000 0.000000 0.000000 0.000000 0.000000 -0.000000 0.000000 0.000000 -0.000000 0.000000 0.000000 2.628184 -1.414501 -0.212371 -2.383201 -4.926109 2.046785 0.000000 0.000000 0.000000 0.000000 0.000000 0.000000 -0.248582 -0.203063 -19.547810 -0.000000 0.000000 0.000000 -7.879649 21.272736 1.787779 0.000000 0.000000 0.000000 -1.349334 -1.282113 -19.782010 0.670840 1.387742 0.211808 4.205615 -5.544417 -4.482692 0.000000 0.000000 0.000000
36.149779 75.345594 360.581984 0.181413 0.329552 19.603838 -0.281469 -0.249581 -19.604972 -0.000000 0.000000 0.000000 -0.000000 0.000000 0.000000 0.000000 0.000000 0.000000 -0.000000 0.000000 0.000000 -0.000000 0.000000 0.000000 0.927282 -1.611458 -0.802676 -1.557229 -1.825612 1.395125 0.000000 0.000000 0.000000 0.000000 0.000000 0.000000 -0.000000 0.000000 0.000000 -0.000000 0.000000 0.000000 3.559071 -1.950670 -0.256199 -2.961535 -6.800178 2.746668 0.000000 0.000000 0.000000 0.000000 0.000000 0.000000 -0.281469 -0.249581 -19.604972 -0.000000 0.000000 0.000000 -9.824497 25.950406 2.594738 0.000000 0.000000 0.000000 -1.660782 -1.576262 -19.898982 0.845875 1.716604 0.259358 5.516488 -7.557067 -5.743278 0.000000 0.000000 0.000000
36.125092 75.331613 360.571029 0.151161 0.329749 19.619412 -0.253107 -0.259848 -19.620421 -0.000000 0.000000 0.000000 -0.000000 0.000000 0.000000 0.000000 0.000000 0.000000 -0.000000 0.000000 0.000000 -0.000000 0.000000 0.000000 0.943485 -2.064265 -0.915718 -1.557614 -1.965580 1.583588 0.000000 0.000000 0.000000 0.000000 0.000000 0.000000 -0.000000 0.000000 0.000000 -0.000000 0.000000 0.000000 4.246030 -2.376497 -0.268239 -3.176831 -8.274117 3.224955 0.000000 0.000000 0.000000 0.000000 0.000000 0.000000 -0.253107 -0.259848 -19.620421 -0.000000 0.000000 0.000000 -10.845102 28.402650 3.036905 0.000000 0.000000 0.000000 -1.748570 -1.663873 -19.935454 0.152682 2.270229 0.178936 7.099465 -9.330745 -6.150983 0.000000 0.000000 0.000000
36.065272 75.310757 360.584317 0.075621 0.275181 19.593871 -0.163525 -0.233886 -19.594387 -0.000000 0.000000 0.000000 -0.000000 0.000000 0.000000 0.000000 0.000000 0.000000 -0.000000 0.000000 0.000000 -0.000000 0.000000 0.000000 0.770463 -2.460825 -0.931832 -1.276627 -1.902389 1.610665 0.000000 0.000000 0.000000 0.000000 0.000000 0.000000 -0.000000 0.000000 0.000000 -0.683961 -0.436927 0.206236 5.369718 -2.279066 -0.500035 -3.052919 -9.351206 3.476106 0.000000 0.000000 0.000000 0.000000 0.000000 0.000000 -0.163525 -0.233886 -19.594387 -0.000000 0.000000 0.000000 -11.073607 29.188992 3.078814 0.000000 0.000000 0.000000 -1.619840 -1.552812 -19.892202 0.097473 2.161439 0.156614 7.406729 -9.931678 -6.047342 0.000000 0.000000 0.000000
35.963862 75.281316 360.622128 -0.081194 0.175853 19.542716 0.017693 -0.192883 -19.542562 -0.000000 0.000000 0.000000 -0.000000 0.000000 0.000000 0.000000 0.000000 0.000000 -0.000000 0.000000 0.000000 -0.000000 0.000000 0.000000 0.639201 -2.152319 -0.800473 -1.635111 -2.088439 1.585930 0.000000 0.000000 0.000000 0.000000 0.000000 0.000000 -0.000000 0.000000 0.000000 -0.779102 -0.647274 0.241837 5.875989 -1.906438 -0.777777 -2.090232 -10.874440 3.636889 0.000000 0.000000 0.000000 0.000000 0.000000 0.000000 0.017693 -0.192883 -19.542562 -0.000000 0.000000 0.000000 -8.944346 24.829554 1.964295 0.000000 0.000000 0.000000 -1.192470 -1.274509 -19.784375 -0.266119 1.777819 0.074783 6.855522 -8.537159 -5.446496 0.000000 0.000000 0.000000
35.825787 75.244814 360.692434 -0.312713 0.046131 19.436427 0.279542 -0.147559 -19.435941 -0.000000 0.000000 0.000000 -0.000000 0.000000 0.000000 0.000000 0.000000 0.000000 0.321302 -1.040098 0.154844 -0.318543 1.040947 -0.149034 -0.164812 -3.389826 -0.742299 -0.754923 -1.432322 1.554660 0.000000 0.000000 0.000000 0.000000 0.000000 0.000000 -0.000000 0.000000 0.000000 -0.825355 -0.881917 0.265452 6.001083 -2.246732 -0.565078 -2.321060 -9.317972 3.094655 0.000000 0.000000 0.000000 0.000000 0.000000 0.000000 0.279542 -0.147559 -19.435941 -0.537662 0.611208 -0.057115 -9.670733 23.583686 3.418860 0.000000 0.000000 0.000000 -0.548129 -0.920874 -19.603200 -0.611459 1.201726 -0.013160 4.898085 -3.553239 -5.876305 0.000000 0.000000 0.000000
35.669887 75.203116 360.767647 -0.495192 -0.147654 19.328951 0.516151 -0.024576 -19.329479 -0.000000 0.000000 0.000000 -0.000000 0.000000 0.000000 0.000000 0.000000 0.000000 0.197627 -1.709039 0.228764 -0.190888 1.709805 -0.222968 -2.210335 -3.285957 0.186617 3.307253 -0.486533 -0.210848 0.000000 0.000000 0.000000 0.000000 0.000000 0.000000 -0.000000 0.000000 0.000000 -0.802759 -1.149106 0.272541 5.652973 -2.202852 -0.378149 -0.525054 -8.367589 1.971519 0.000000 0.000000 0.000000 0.000000 0.000000 0.000000 0.264533 0.747898 -19.487594 0.494930 -0.644266 0.162487 -6.289229 20.615087 0.286550 0.000000 0.000000 0.000000 0.516151 -0.024576 -19.329479 -0.000000 0.000000 0.000000 1.673288 -0.023812 -4.379292 0.000000 0.000000 0.000000
35.512060 75.158478 360.848423 -0.616680 -0.401471 19.134538 0.714208 0.177129 -19.137803 -0.000000 0.000000 0.000000 0.931594 0.443786 0.021830 0.000000 0.000000 0.000000 0.104071 -2.338280 0.299024 0.975445 2.692228 -0.655662 -5.024331 -2.975273 1.447508 6.570646 -1.162542 -1.673273 0.000000 0.000000 0.000000 0.000000 0.000000 0.000000 -0.000000 0.000000 0.000000 -0.804103 -1.457771 0.287953 4.683958 -1.644973 -0.217344 2.259052 -7.653795 0.583342 0.000000 0.000000 0.000000 0.000000 0.000000 0.000000 0.714208 0.177129 -19.137803 -0.000000 0.000000 0.000000 -3.222827 17.408962 -2.101895 0.000000 0.000000 0.000000 0.714208 0.177129 -19.137803 -0.000000 0.000000 0.000000 0.843862 0.933624 -3.321518 0.000000 0.000000 0.000000
35.366845 75.128693 360.938260 -0.608764 -0.740481 18.884401 0.491400 -0.403782 -18.898430 -0.036807 -0.403036 -0.010855 1.495590 2.047922 0.012269 0.000000 0.000000 0.000000 0.032563 -2.414193 0.483350 1.303151 4.193357 -0.923621 -6.898391 -5.054496 1.682933 7.834473 2.438199 -2.284009 0.000000 0.000000 0.000000 0.000000 0.000000 0.000000 0.693629 0.264041 -0.364381 -1.333025 -0.351514 0.650162 3.138459 -1.061253 0.019839 3.876522 -6.609280 -0.313751 0.000000 0.000000 0.000000 0.000000 0.000000 0.000000 0.815688 0.503542 -18.891919 -0.000000 0.000000 0.000000 -1.018334 15.174580 -3.852808 0.000000 0.000000 0.000000 1.134141 1.561259 -18.723669 0.037925 -1.103950 -0.173623 0.850887 -0.020947 -2.196025 0.000000 0.000000 0.000000
35.328263 75.147792 360.984739 -0.433351 -1.060945 18.720974 0.548708 -0.834443 -18.731243 -0.026416 -0.476548 0.003956 1.638736 3.139615 -0.023052 0.000000 0.000000 0.000000 -1.039950 -3.700892 0.666741 2.688041 6.407430 -1.461614 -8.321263 -5.383871 2.144090 11.425711 4.207685 -3.853984 0.000000 0.000000 0.000000 0.000000 0.000000 0.000000 0.786194 0.274609 -0.656159 -1.649638 0.158814 0.903223 1.121983 0.723159 -0.017610 5.210579 -8.645526 0.283761 0.000000 0.000000 0.000000 0.000000 0.000000 0.000000 0.751019 0.865674 -18.730660 -0.529798 0.729640 -0.047508 0.636558 13.563057 -4.784582 0.000000 0.000000 0.000000 1.049203 1.676502 -18.601060 -0.023957 -0.863561 -0.136396 -0.471296 2.559854 -1.866038 0.000000 0.000000 0.000000
35.294761 75.223282 361.006164 -0.079009 -1.517928 18.432384 0.512308 -1.272877 -18.433285 -0.014391 -0.489095 0.022985 1.814647 3.940332 -0.155761 0.000000 0.000000 0.000000 -2.235191 -5.399662 0.904946 4.487500 9.294469 -2.337544 -10.138731 -6.418278 2.562879 12.493279 6.012674 -4.477536 0.000000 0.000000 0.000000 0.000000 0.000000 0.000000 1.059857 -0.019400 -1.102673 -2.276175 1.186422 1.322356 -0.675722 1.372410 0.382723 6.912246 -8.126085 -0.414544 0.000000 0.000000 0.000000 0.000000 0.000000 0.000000 0.555023 1.415047 -18.440285 -0.686739 0.691059 -0.078282 0.746666 14.220536 -4.889476 0.000000 0.000000 0.000000 0.555023 1.415047 -18.440285 0.545985 1.147084 0.109821 0.042981 0.183430 -3.234159 0.000000 0.000000 0.000000
